<?xml version="1.0" encoding="UTF-8"?>
<svg xmlns="http://www.w3.org/2000/svg" xmlns:xlink="http://www.w3.org/1999/xlink" viewBox="0 0 311.06 311.4">
  <defs>
    <style>
      .cls-1 {
        fill: url(#linear-gradient);
      }

      .cls-2 {
        fill: #fff;
      }

      .cls-3 {
        fill: #5373a5;
      }
    </style>
    <linearGradient id="linear-gradient" x1="130.5" y1="8.58" x2="182.67" y2="304.45" gradientUnits="userSpaceOnUse">
      <stop offset=".17" stop-color="#89aee8"/>
      <stop offset=".76" stop-color="#759ed8"/>
    </linearGradient>
  </defs>
  <g id="Layer_1" data-name="Layer 1">
    <circle class="cls-1" cx="156.59" cy="156.51" r="150.19"/>
  </g>
  <g id="Layer_3" data-name="Layer 3">
    <path class="cls-3" d="M122.63,273.33c7.75-1.05,8.25-7.49,13.85-10.7l-2.67-2.4c-6.18,3.27-9.56,6-11.19,13.11ZM116.92,267.65c-.27.14-4.71.2-5,2.53,4.07.23,4.66-1.62,8.47,1.29l2.87-6.94c-5.1-1.09-5.98,2.94-6.33,3.12ZM167.36,251.96c-4.73,1.18-7.43,3.2-9.57,6.32.08-.01.13-.02.13-.02,4.28.36,7.82-2.11,9.45-6.3ZM265.53,101.21c-16,2.86-22.75,17.62-42.37,16.16-12.79-.95-49.9-15.99-65.1-20.64-1.33-.41-2.2,1.3-2.65,1.16-1.1-.33-14.2-12.4-17.87-14.57-10.72-6.34-27.29-12.58-39.43-7.06-6.44,2.92-13.02,13.88-19.16,16.1-6.89,2.49-16.2-1.32-22.83,3.63l-.3,1.89c7.93,3.02,19.57.98,26.42,6.03.33.24.64.52.94.79,1.13,1.06,2.23,2.48,3.26,4.07,1.86,3.03,3.28,6.57,4.93,9.64.66,1.57,1.2,2.96,1.59,4,.45,1.2.67,2.46.66,3.74-.02,3.59-.06,11.62.02,17.02,1.9,24.99,25.34,52.59,48.36,61.46,3.97,1.53,21.33,5.09,22.37,7.23.48,2.25.27,7.43-.33,9.44-.81,2.73-16.87,30.21-19.11,32.51-1.65,1.69-7.04.53-4.05,5.06l-4.4-1.25c.29,4.64,4.82,6.1,2.52,11.31.66-.04,1.33-.13,1.99-.25.45-1.54.83-3.41.53-4.78l-.6-2.76c5.82-1.85,3.07-2.2,4.49-4.3,8.25-12.2,16.84-24.54,24.99-36.75,1.19-1.79,2.37-8.06,4.14-9.07,3.06-1.75,20.51-.94,25.57-5.61l-1.87,9.76,1.24,1.23-19.22,25.43.32,3.18-3.14-1.87c-6.12,8.2-14.42,15.48-13.57,26.4,3.05-2.39,4.35-6.48,6.37-9.38,1.42-2.05,4.49-2.98,4.61-3.23,1.52-3.05-.67-9.1,2.87-11.85l1.63.97c-2.5,6.12-3.43,11.99-.7,18.18l3.18,1.54c-6.31-6.63-1.14-7.05-.67-8.55.27-.85-.97-3.07-.54-4.87,4.4-18.16,28.88-38.77,30.06-47.41.26-1.92-1.33-3.79-1.02-5.99.91-6.26,10.63-8.6,14.86-11.96,6.8-5.41,14.09-12.53,19.31-20.02.9-1.29,1.19-4.13,2.16-5.62-.21.02-.41.03-.62.05-8.31.73-16.62,1.42-24.94,2.03-8.94.66-17.88,1.25-26.83,1.59-3.59.14-7.19.24-10.79.22-2.48-.02-4.98-.05-7.43-.41-5.9-.85-11.64-2.85-16.81-5.81-2.22-1.27-4.46-2.7-6.35-4.44-.51-.47,1.09-1.14,1.58-.7.13.12.26.23.4.35,2.76,2.34,5.98,4.21,9.25,5.74,4.54,2.12,9.52,3.63,14.53,4.02,6.59.52,13.3.12,19.89-.19,8.95-.42,17.88-1.04,26.81-1.72,7.65-.58,15.3-1.23,22.94-1.91,3.1-1.16,9.68-1.11,12.36-1.31-2.03-4.87-9.65-4.03-8.53-10.06.64-3.45,5.13-6.66,6.59-9.79,1.8-3.87,1.88-8.03,4.58-13.03,4.41-8.17,11.56-12.4,16.87-19.52-.24-7.96-8.21-6.3-13.99-5.27ZM110.52,93.2c-.27.85-.76,1.81-1.57,2.27-.87.5-2.02.38-2.89-.04-.51-.24-.94-.62-1.25-1.1-.41-.64-.55-1.41-.55-2.16,0-.09.1-.21.14-.28,0-.01.11-.17.11-.14,0,.79.16,1.6.63,2.26.55.79,1.47,1.23,2.41,1.32.49.05,1.01,0,1.46-.21.29-.13.54-.32.75-.56.26-.29.4-.64.52-1.01.03-.11.1-.21.16-.3,0-.01.11-.15.08-.06ZM107.67,89.78c-1.42-.1-2.76.96-3.17.89-1.16-.2,1.39-1.74,3.31-1.79,2.43-.06,3.31.85,3.31,1.19s-2.04-.2-3.46-.3ZM160.13,261.38l-2.21-3.13s-2.2,2.97-3.2,6.17c2.59-.52,5.13-.49,7.6.74l-1.27-5.65-.93,1.87Z"/>
    <path class="cls-2" d="M155.92,256.18l-2.21-3.13s-2.2,2.97-3.2,6.17c2.59-.52,5.13-.49,7.6.74l-1.27-5.65-.93,1.87ZM118.43,268.13c7.75-1.05,8.25-7.49,13.85-10.7l-2.67-2.4c-6.18,3.27-9.56,6-11.19,13.11ZM112.71,262.45c-.27.14-4.71.2-5,2.53,4.07.23,4.66-1.62,8.47,1.29l2.87-6.94c-5.1-1.09-5.98,2.94-6.33,3.12ZM163.16,246.75c-4.73,1.18-7.43,3.2-9.57,6.32.08-.01.13-.02.13-.02,4.28.36,7.82-2.11,9.45-6.3ZM261.33,96c-16,2.86-22.75,17.62-42.37,16.16-12.79-.95-49.9-15.99-65.1-20.64-1.33-.41-2.2,1.3-2.65,1.16-1.1-.33-14.2-12.4-17.87-14.57-10.72-6.34-27.29-12.58-39.43-7.06-6.44,2.92-13.02,13.88-19.16,16.1-6.89,2.49-16.2-1.32-22.83,3.63l-.3,1.89c7.93,3.02,19.57.98,26.42,6.03.33.24.64.52.94.79,1.13,1.06,2.23,2.48,3.26,4.07,1.86,3.03,3.28,6.57,4.93,9.64.66,1.57,1.2,2.96,1.59,4,.45,1.2.67,2.46.66,3.74-.02,3.59-.06,11.62.02,17.02,1.9,24.99,25.34,52.58,48.36,61.46,3.97,1.53,21.33,5.09,22.37,7.23.48,2.25.27,7.43-.33,9.44-.81,2.73-16.87,30.21-19.11,32.51-1.65,1.69-7.04.53-4.05,5.06l-4.4-1.25c.29,4.64,4.82,6.1,2.52,11.31.66-.04,1.33-.13,1.99-.25.45-1.54.83-3.41.53-4.78l-.6-2.76c5.82-1.85,3.07-2.2,4.49-4.3,8.25-12.2,16.84-24.54,24.99-36.75,1.19-1.79,2.37-8.06,4.14-9.07,3.06-1.75,20.51-.94,25.57-5.61l-1.87,9.76,1.24,1.23-19.22,25.43.32,3.18-3.14-1.87c-6.12,8.2-14.42,15.48-13.57,26.4,3.05-2.39,4.35-6.48,6.37-9.38,1.42-2.05,4.49-2.98,4.61-3.23,1.52-3.06-.67-9.1,2.87-11.85l1.63.97c-2.5,6.12-3.43,11.99-.7,18.18l3.18,1.54c-6.31-6.63-1.14-7.05-.67-8.55.27-.85-.97-3.07-.54-4.87,4.4-18.16,28.88-38.77,30.06-47.41.26-1.92-1.33-3.79-1.02-5.99.91-6.26,10.63-8.6,14.86-11.96,6.8-5.41,14.09-12.53,19.31-20.02.9-1.29,1.19-4.13,2.16-5.62-.21.02-.41.03-.62.05-8.31.73-16.62,1.42-24.94,2.03-8.94.66-17.88,1.25-26.83,1.59-3.59.14-7.19.24-10.79.22-2.48-.02-4.98-.05-7.43-.41-5.9-.85-11.64-2.85-16.81-5.81-2.22-1.27-4.46-2.7-6.35-4.44-.51-.47,1.09-1.14,1.58-.7.13.12.26.23.4.35,2.76,2.34,5.98,4.21,9.25,5.74,4.54,2.12,9.52,3.63,14.53,4.02,6.59.52,13.3.12,19.89-.19,8.95-.42,17.88-1.04,26.81-1.72,7.65-.58,15.3-1.23,22.94-1.91,3.1-1.16,9.68-1.11,12.36-1.31-2.03-4.87-9.65-4.03-8.53-10.06.64-3.45,5.13-6.66,6.59-9.79,1.8-3.87,1.88-8.03,4.58-13.03,4.41-8.17,11.56-12.4,16.87-19.52-.24-7.96-8.21-6.3-13.99-5.27ZM106.31,88c-.27.85-.76,1.81-1.57,2.27-.87.5-2.02.38-2.89-.04-.51-.24-.94-.62-1.25-1.1-.41-.64-.55-1.41-.55-2.16,0-.09.1-.21.14-.28,0-.01.11-.17.11-.14,0,.79.16,1.6.63,2.26.55.79,1.47,1.23,2.41,1.32.49.05,1.01,0,1.46-.21.29-.13.54-.32.75-.56.26-.29.4-.64.52-1.01.03-.11.1-.21.16-.3,0-.01.11-.15.08-.06ZM103.46,84.57c-1.42-.1-2.76.96-3.17.89-1.16-.2,1.39-1.74,3.31-1.79,2.43-.06,3.31.85,3.31,1.19s-2.04-.2-3.46-.3Z"/>
  </g>
</svg>